<?xml version="1.0" standalone="no"?>
<!DOCTYPE svg PUBLIC "-//W3C//DTD SVG 20010904//EN"
 "http://www.w3.org/TR/2001/REC-SVG-20010904/DTD/svg10.dtd">
<svg version="1.0" xmlns="http://www.w3.org/2000/svg"
 width="940.000000pt" height="940.000000pt" viewBox="0 0 940.000000 940.000000"
 preserveAspectRatio="xMidYMid meet">
<metadata>
Created by potrace 1.14, written by Peter Selinger 2001-2017
</metadata>
<g transform="translate(0.000000,940.000000) scale(0.100000,-0.100000)"
fill="#000000" stroke="none">
<path d="M8378 9395 c-2 -1 -32 -6 -68 -10 -36 -4 -78 -8 -95 -10 -16 -2 -43
-6 -60 -10 -16 -3 -41 -8 -55 -10 -14 -2 -40 -8 -59 -14 -19 -6 -37 -9 -39 -6
-3 3 -10 1 -16 -4 -6 -5 -24 -11 -41 -14 -35 -6 -213 -67 -270 -93 -22 -10
-42 -18 -45 -19 -25 -5 -80 -31 -80 -37 0 -4 -4 -8 -9 -8 -14 0 -73 -28 -126
-60 -27 -17 -65 -38 -82 -47 -18 -9 -33 -20 -33 -25 0 -4 -5 -8 -11 -8 -12 0
-90 -53 -129 -87 -13 -13 -28 -23 -31 -23 -3 0 -19 -11 -35 -25 -16 -14 -33
-25 -37 -25 -5 0 -5 -4 -2 -10 3 -5 1 -10 -5 -10 -27 0 -224 -200 -335 -340
-19 -25 -39 -50 -44 -56 -4 -5 -13 -20 -20 -31 -6 -12 -17 -28 -24 -35 -8 -7
-39 -56 -70 -108 -31 -52 -60 -99 -65 -105 -4 -5 -9 -13 -10 -18 -1 -4 -13
-31 -28 -60 -21 -44 -47 -104 -99 -232 -5 -11 -7 -24 -6 -29 1 -4 -2 -13 -7
-20 -8 -9 -37 -95 -48 -141 -19 -81 -44 -201 -48 -231 -3 -21 -8 -55 -11 -75
-3 -20 -8 -53 -11 -75 -3 -21 -7 -1140 -8 -2486 l-2 -2447 111 4 c117 5 154 8
223 20 23 4 52 8 65 9 89 11 381 90 422 115 6 3 13 6 18 7 4 1 8 2 10 4 1 1
10 3 19 5 20 4 310 145 318 154 3 3 34 24 70 46 36 21 70 43 75 47 6 5 33 26
62 46 59 44 125 96 162 130 50 45 171 163 171 167 0 2 18 23 40 47 85 92 186
231 257 353 49 84 123 225 118 225 -3 0 7 21 20 48 25 51 110 298 119 347 3
17 10 49 16 73 5 23 13 59 16 80 3 20 7 48 10 62 9 49 18 136 18 177 1 24 3
43 6 43 3 0 5 852 6 1893 0 1040 4 1922 8 1960 14 139 76 392 101 409 5 4 7 8
3 8 -4 0 2 21 13 48 29 66 37 86 35 92 0 3 9 20 22 38 13 17 20 32 15 32 -4 0
-3 4 3 8 5 4 27 37 47 73 20 36 43 72 52 79 8 7 15 18 15 24 0 7 11 23 25 36
14 13 25 27 25 31 0 4 18 27 40 50 22 24 40 47 40 52 0 7 -624 9 -632 2z"/>
<path d="M5457 7044 c-1 -1 -32 -5 -69 -8 -37 -4 -75 -9 -86 -11 -11 -2 -35
-6 -53 -9 -19 -3 -45 -8 -59 -11 -14 -3 -41 -8 -60 -11 -19 -3 -39 -9 -45 -12
-5 -3 -16 -7 -25 -8 -19 -2 -129 -33 -155 -44 -28 -11 -120 -42 -120 -40 0 6
-236 -111 -300 -148 -89 -51 -259 -166 -290 -195 -11 -10 -41 -35 -67 -54
-116 -89 -333 -334 -434 -488 -21 -33 -42 -61 -46 -63 -5 -2 -8 -7 -8 -12 0
-5 -23 -47 -50 -95 -28 -48 -50 -93 -50 -101 0 -8 -4 -14 -10 -14 -5 0 -10 -5
-10 -11 0 -5 -9 -31 -21 -57 -11 -26 -26 -60 -34 -77 -25 -58 -93 -270 -101
-315 -1 -8 -12 -62 -23 -118 -44 -214 -44 -216 -47 -2262 -1 -1037 -5 -1898
-8 -1915 -3 -16 -7 -47 -11 -68 -8 -58 -44 -207 -61 -249 -7 -21 -12 -38 -9
-38 3 0 -4 -18 -15 -40 -11 -22 -18 -40 -16 -40 5 0 -113 -239 -125 -254 -5
-6 -30 -42 -55 -81 -47 -70 -123 -167 -136 -173 -5 -2 -8 -8 -8 -14 0 -11 651
-5 720 6 19 3 51 8 70 12 19 3 51 7 70 10 110 14 341 82 490 144 76 31 241
111 250 120 3 3 37 25 75 48 99 60 109 66 115 72 3 3 39 30 80 61 41 31 90 70
109 85 56 47 213 206 256 259 22 28 52 63 67 80 16 16 28 35 28 42 0 6 4 13 9
15 11 4 118 164 126 189 4 10 11 19 16 19 5 0 9 6 9 14 0 8 6 21 13 28 12 13
118 233 121 253 1 5 7 19 13 30 21 40 93 278 107 360 6 30 11 56 21 105 3 14
7 43 10 65 3 22 8 58 11 80 4 22 8 1144 9 2493 l2 2453 -94 -3 c-52 -2 -95 -4
-96 -4z"/>
<path d="M1390 2339 c-19 -4 -53 -10 -75 -14 -45 -7 -53 -9 -75 -18 -8 -3 -40
-13 -70 -23 -61 -19 -233 -103 -238 -116 -2 -4 -8 -8 -13 -8 -26 0 -259 -206
-259 -230 0 -5 -4 -10 -10 -10 -9 0 -125 -173 -147 -220 -13 -27 -45 -102 -48
-110 -1 -3 -11 -36 -24 -75 -12 -38 -24 -83 -27 -100 -2 -16 -9 -55 -14 -85
-9 -56 -7 -279 4 -337 3 -18 8 -45 10 -60 6 -38 44 -160 63 -203 40 -89 81
-168 93 -180 3 -3 22 -30 42 -60 36 -53 157 -184 208 -225 125 -99 295 -187
435 -225 6 -1 15 -4 20 -6 56 -19 199 -32 320 -29 156 4 173 6 295 42 89 25
300 120 300 135 0 4 5 8 11 8 38 0 282 229 319 301 7 13 16 26 20 29 8 7 90
150 90 158 0 4 7 20 15 35 17 34 62 173 71 220 3 17 8 46 11 62 8 42 12 328 5
340 -3 5 -7 16 -8 25 -3 32 -14 93 -19 99 -2 4 -6 18 -9 32 -8 41 -58 174 -68
180 -5 3 -9 9 -8 13 2 13 -62 123 -112 191 -139 186 -332 328 -558 409 -41 15
-76 27 -77 27 -2 -1 -4 -1 -5 0 -14 4 -77 18 -118 26 -44 8 -314 10 -350 2z"/>
</g>
</svg>
