<svg xmlns="http://www.w3.org/2000/svg" viewBox="0 0 216.09 235.09">
  <path d="m72.96,117.55v88.45c-.07,11.21-4.38,21.42-11.4,29.1h11.41c32.46,0,58.77-26.32,58.77-58.77V58.77c-32.46,0-58.77,26.31-58.77,58.77Z" fill="#000"/>
  <path d="m29.39,176.32c-16.23,0-29.39,13.16-29.39,29.39s13.16,29.39,29.39,29.39,29.39-13.16,29.39-29.39-13.16-29.39-29.39-29.39Z" fill="#000"/>
  <path d="m204.68,0c-32.39,0-58.65,26.2-58.77,58.56h0v117.76c32.46,0,58.77-26.31,58.77-58.77V29.39c0-11.33,4.32-21.64,11.41-29.39h-11.41Z" fill="#000"/>
</svg>